<svg version="1.1" baseProfile="full" width="438" height="631.5625" viewbox="0 0 438 631.5625" xmlns="http://www.w3.org/2000/svg" xmlns:xlink="http://www.w3.org/1999/xlink" xmlns:ev="http://www.w3.org/2001/xml-events" style="font:bold normal 12pt Helvetica, Helvetica, sans-serif;;stroke-linejoin:round;stroke-linecap:round">
  <title >nomnoml</title>
  <desc >#direction: right
#spacing: 50
#padding: 20
[group-a|
[&lt;actor&gt; AppUser] -&gt; [&lt;usecase&gt; A]
[&lt;actor&gt; AppUser] -&gt; [&lt;usecase&gt; B]
]

[group-b|
[&lt;actor&gt; AppUser] -&gt; [&lt;usecase&gt; C]
[&lt;usecase&gt; C] -&gt; [&lt;usecase&gt; D]
[&lt;actor&gt; AppUser] -&gt; [&lt;usecase&gt; D]
]
</desc>
  <rect x="0" y="0" height="631.5625" width="438" style="stroke:none; fill:transparent;"></rect>
  <rect x="83.5" y="25.5" height="292.5" width="271.75" style="stroke:#33322E;fill:#eee8d5;stroke-dasharray:none;stroke-width:3;"></rect>
  <text x="219.4" y="59" style="fill: #33322E;font:bold  12pt Helvetica, Helvetica, sans-serif;text-anchor: middle;">group-a</text>
  <path d="M216.5 158.7 L241.5 139.9 L266.5 139.9 L266.5 139.9 " style="stroke:#33322E;fill:none;stroke-dasharray:none;stroke-width:3;"></path>
  <path d="M249.8 146.5 L258.2 139.9 L249.8 133.2 L266.5 139.9 Z" style="stroke:#33322E;fill:#33322E;stroke-dasharray:none;stroke-width:3;"></path>
  <path d="M216.5 239.8 L241.5 258.6 L266.5 258.6 L266.5 258.6 " style="stroke:#33322E;fill:none;stroke-dasharray:none;stroke-width:3;"></path>
  <path d="M249.8 265.3 L258.2 258.6 L249.8 252 L266.5 258.6 Z" style="stroke:#33322E;fill:#33322E;stroke-dasharray:none;stroke-width:3;"></path>
  <circle r="10" cx="162.5" cy="171.5" style="stroke:#33322E;fill:#fdf6e3;stroke-dasharray:none;stroke-width:3;"></circle>
  <path d="M162.5 181.5 L162.5 201.5" style="stroke:#33322E;fill:none;stroke-dasharray:none;stroke-width:3;"></path>
  <path d="M152.5 191.5 L172.5 191.5" style="stroke:#33322E;fill:none;stroke-dasharray:none;stroke-width:3;"></path>
  <path d="M152.5 211.5 L162.5 201.5 L172.5 211.5" style="stroke:#33322E;fill:none;stroke-dasharray:none;stroke-width:3;"></path>
  <text x="162.5" y="235" style="fill: #33322E;font:normal  12pt Helvetica, Helvetica, sans-serif;text-anchor: middle;">AppUser</text>
  <ellipse cx="298.4" cy="139.9" rx="31.875" ry="34.375" style="stroke:#33322E;fill:#fdf6e3;stroke-dasharray:none;stroke-width:3;"></ellipse>
  <text x="298.4" y="145.9" style="fill: #33322E;font:normal  12pt Helvetica, Helvetica, sans-serif;text-anchor: middle;">A</text>
  <ellipse cx="298.4" cy="258.6" rx="31.875" ry="34.375" style="stroke:#33322E;fill:#fdf6e3;stroke-dasharray:none;stroke-width:3;"></ellipse>
  <text x="298.4" y="264.9" style="fill: #33322E;font:normal  12pt Helvetica, Helvetica, sans-serif;text-anchor: middle;">B</text>
  <path d="M83.5 80.5 L355.3 80.5" style="stroke:#33322E;fill:none;stroke-dasharray:none;stroke-width:3;"></path>
  <rect x="25.5" y="368.5" height="239.0625" width="388" style="stroke:#33322E;fill:#eee8d5;stroke-dasharray:none;stroke-width:3;"></rect>
  <text x="219.5" y="402" style="fill: #33322E;font:bold  12pt Helvetica, Helvetica, sans-serif;text-anchor: middle;">group-b</text>
  <path d="M158.5 496.2 L183.5 482.9 L208.5 482.9 L208.5 482.9 " style="stroke:#33322E;fill:none;stroke-dasharray:none;stroke-width:3;"></path>
  <path d="M191.8 489.5 L200.2 482.9 L191.8 476.2 L208.5 482.9 Z" style="stroke:#33322E;fill:#33322E;stroke-dasharray:none;stroke-width:3;"></path>
  <path d="M273.5 482.9 L298.5 482.9 L323.5 501.2 L323.5 501.2 " style="stroke:#33322E;fill:none;stroke-dasharray:none;stroke-width:3;"></path>
  <path d="M306.1 496.7 L316.8 496.3 L314 486 L323.5 501.2 Z" style="stroke:#33322E;fill:#33322E;stroke-dasharray:none;stroke-width:3;"></path>
  <path d="M158.5 553.9 L183.5 567.3 L241 567.3 L241 567.3 L298.5 567.3 L298.5 567.3 L323.5 548.9 L323.5 548.9 " style="stroke:#33322E;fill:none;stroke-dasharray:none;stroke-width:3;"></path>
  <path d="M314 564.1 L316.8 553.8 L306.1 553.4 L323.5 548.9 Z" style="stroke:#33322E;fill:#33322E;stroke-dasharray:none;stroke-width:3;"></path>
  <circle r="10" cx="104.5" cy="497.5" style="stroke:#33322E;fill:#fdf6e3;stroke-dasharray:none;stroke-width:3;"></circle>
  <path d="M104.5 507.5 L104.5 527.5" style="stroke:#33322E;fill:none;stroke-dasharray:none;stroke-width:3;"></path>
  <path d="M94.5 517.5 L114.5 517.5" style="stroke:#33322E;fill:none;stroke-dasharray:none;stroke-width:3;"></path>
  <path d="M94.5 537.5 L104.5 527.5 L114.5 537.5" style="stroke:#33322E;fill:none;stroke-dasharray:none;stroke-width:3;"></path>
  <text x="104.5" y="561" style="fill: #33322E;font:normal  12pt Helvetica, Helvetica, sans-serif;text-anchor: middle;">AppUser</text>
  <ellipse cx="241" cy="482.9" rx="32.5" ry="34.375" style="stroke:#33322E;fill:#fdf6e3;stroke-dasharray:none;stroke-width:3;"></ellipse>
  <text x="241" y="488.9" style="fill: #33322E;font:normal  12pt Helvetica, Helvetica, sans-serif;text-anchor: middle;">C</text>
  <ellipse cx="356" cy="525.1" rx="32.5" ry="34.375" style="stroke:#33322E;fill:#fdf6e3;stroke-dasharray:none;stroke-width:3;"></ellipse>
  <text x="356" y="530.9" style="fill: #33322E;font:normal  12pt Helvetica, Helvetica, sans-serif;text-anchor: middle;">D</text>
  <path d="M25.5 423.5 L413.5 423.5" style="stroke:#33322E;fill:none;stroke-dasharray:none;stroke-width:3;"></path>
</svg>
